<svg xmlns="http://www.w3.org/2000/svg" viewBox="0 0 512 512">
  <defs>
    <linearGradient id="g" x1="0" y1="0" x2="1" y2="1">
      <stop offset="0" stop-color="#2563eb"/>
      <stop offset="0.52" stop-color="#0891b2"/>
      <stop offset="1" stop-color="#16a34a"/>
    </linearGradient>
    <filter id="s" x="-20%" y="-20%" width="140%" height="140%">
      <feDropShadow dx="0" dy="12" stdDeviation="12" flood-color="#0f172a" flood-opacity=".22"/>
    </filter>
  </defs>
  <g filter="url(#s)">
    <g fill="url(#g)" transform="translate(256 256)">
      <rect x="-28" y="-226" width="56" height="82" rx="18"/>
      <rect x="-28" y="144" width="56" height="82" rx="18"/>
      <rect x="-226" y="-28" width="82" height="56" rx="18"/>
      <rect x="144" y="-28" width="82" height="56" rx="18"/>
      <rect x="-28" y="-226" width="56" height="82" rx="18" transform="rotate(45)"/>
      <rect x="-28" y="144" width="56" height="82" rx="18" transform="rotate(45)"/>
      <rect x="-28" y="-226" width="56" height="82" rx="18" transform="rotate(90)"/>
      <rect x="-28" y="144" width="56" height="82" rx="18" transform="rotate(90)"/>
      <circle r="170"/>
    </g>
    <circle cx="256" cy="256" r="116" fill="#0f4c81"/>
    <circle cx="256" cy="256" r="68" fill="#ffffff" opacity=".96"/>
    <g stroke="#ffffff" stroke-width="30" stroke-linecap="round" stroke-linejoin="round" fill="none">
      <path d="M183 329 L329 183"/>
      <path d="M183 183 L329 329"/>
    </g>
    <g fill="none" stroke="#ffffff" stroke-width="16">
      <circle cx="180" cy="180" r="31"/>
      <circle cx="332" cy="180" r="31"/>
    </g>
  </g>
  <g fill="none" stroke="#0ea5a8" stroke-width="9" opacity=".92">
    <ellipse cx="256" cy="256" rx="226" ry="146" transform="rotate(26 256 256)"/>
  </g>
  <circle cx="256" cy="25" r="18" fill="#2563eb"/>
  <circle cx="466" cy="360" r="18" fill="#16a34a"/>
  <circle cx="46" cy="360" r="18" fill="#14b8a6"/>
</svg>
